<?xml version="1.0" encoding="UTF-8"?>
<svg id="Layer_2" data-name="Layer 2" xmlns="http://www.w3.org/2000/svg" viewBox="0 0 62.17 62.17">
  <defs>
    <style>
      .cls-1 {
        fill: #fafafa;
      }
    </style>
  </defs>
  <g id="Layer_1-2" data-name="Layer 1">
    <path class="cls-1" d="m55.95,0H6.22C2.78,0,0,2.78,0,6.22v49.73c0,3.43,2.78,6.22,6.22,6.22h49.73c3.43,0,6.22-2.78,6.22-6.22V6.22c0-3.43-2.78-6.22-6.22-6.22Zm-30.29,44.3h-5.27c-.42,0-.79-.17-.98-.44l-8.5-12.28c-.21-.3-.2-.65,0-.94l8.49-12.22c.19-.27.56-.44.98-.44h5.27c.54,0,.9.41.65.76l-8.27,11.89c-.21.3-.21.65,0,.94l8.27,11.96c.24.35-.11.76-.65.76Zm25.59-12.66l-8.49,12.22c-.19.27-.56.44-.98.44h-5.27c-.54,0-.9-.41-.65-.76l8.27-11.89c.21-.3.21-.65,0-.94l-8.27-11.96c-.24-.35.11-.76.65-.76h5.27c.42,0,.79.17.98.44l8.5,12.28c.21.3.2.65,0,.94Z"/>
  </g>
</svg>